<?xml version="1.0" standalone="no"?>
<!DOCTYPE svg PUBLIC "-//W3C//DTD SVG 20010904//EN"
 "http://www.w3.org/TR/2001/REC-SVG-20010904/DTD/svg10.dtd">
<svg version="1.0" xmlns="http://www.w3.org/2000/svg"
 width="220.000000pt" height="308.000000pt" viewBox="0 0 220.000000 308.000000"
 preserveAspectRatio="xMidYMid meet">

<g transform="translate(0.000000,308.000000) scale(0.100000,-0.100000)"
fill="#000000" stroke="none">
<path d="M1090 2812 c-76 -5 -177 -28 -235 -53 -11 -4 -37 -15 -57 -23 -97
-38 -205 -151 -228 -236 -20 -73 -30 -258 -17 -306 19 -73 32 -111 44 -129 7
-11 13 -30 13 -43 0 -13 5 -32 10 -42 22 -40 -9 -27 -48 22 -34 41 -43 47 -48
33 -4 -10 1 -31 11 -48 10 -17 22 -44 26 -61 l7 -31 1 33 c2 49 25 39 49 -20
11 -29 23 -61 27 -71 6 -14 4 -16 -11 -10 -18 7 -18 6 -3 -18 9 -13 27 -65 39
-114 12 -50 33 -117 46 -149 18 -43 24 -79 24 -131 0 -63 -3 -76 -28 -109 -32
-43 -63 -57 -402 -175 -113 -39 -229 -83 -257 -98 l-53 -27 0 -503 0 -503 455
0 c250 0 455 2 455 5 0 10 -51 439 -61 514 -20 153 -61 389 -89 525 -30 138
-40 273 -20 261 6 -3 10 -16 10 -29 0 -12 7 -31 15 -42 14 -18 15 -17 6 8 -8
22 -7 27 7 31 17 3 74 -21 80 -35 2 -4 10 -4 19 -1 10 4 14 2 10 -4 -4 -6 14
-10 44 -12 46 -2 49 -1 49 23 0 19 -4 24 -15 20 -10 -4 -13 -2 -10 8 4 9 -5
20 -23 29 -33 16 -170 166 -164 179 1 3 -4 12 -12 22 -8 9 -12 19 -9 21 2 3
-1 15 -7 27 -7 12 -14 62 -16 110 -2 49 -6 104 -9 122 -9 61 -16 103 -20 114
-2 7 7 22 21 35 17 16 21 26 13 35 -7 8 -7 14 1 19 16 10 20 3 31 -47 16 -72
30 -98 52 -98 21 0 21 0 0 15 -24 17 -43 71 -43 122 0 52 27 63 150 63 120 0
172 -17 178 -59 2 -14 0 -21 -6 -17 -12 7 -36 -59 -27 -73 13 -21 -38 -51 -89
-52 l-51 -2 55 -7 c65 -8 87 6 115 73 9 23 20 49 25 57 11 23 43 18 56 -10 7
-14 23 -47 36 -74 26 -55 44 -64 108 -55 42 6 42 6 10 8 -19 1 -45 4 -58 7
-24 7 -57 58 -47 74 3 6 3 10 -2 10 -4 0 -9 20 -11 44 -3 44 -2 45 35 55 49
14 176 13 233 -2 43 -12 45 -14 48 -52 1 -22 -1 -35 -5 -28 -5 7 -8 -4 -8 -27
0 -50 -27 -80 -74 -81 -25 -1 -29 -3 -12 -6 44 -9 71 6 90 48 14 30 21 37 29
27 9 -12 17 -70 12 -93 -1 -5 -1 -14 0 -20 1 -5 3 -31 4 -57 1 -26 6 -51 10
-55 5 -4 6 2 3 15 -3 12 -1 22 4 22 5 0 7 16 4 37 -4 30 -2 33 8 21 10 -14 15
-12 36 15 l25 32 -29 -25 c-19 -17 -26 -20 -22 -8 3 9 3 19 -1 22 -11 12 -11
66 0 63 16 -3 32 75 17 83 -7 5 -6 18 5 44 8 20 11 34 6 31 -15 -9 -12 13 15
99 21 68 24 93 20 180 -4 101 -15 149 -53 222 -29 55 -88 117 -104 108 -7 -4
-10 -4 -6 1 9 9 -45 55 -64 55 -8 0 -34 18 -59 39 -24 22 -45 38 -47 36 -2 -2
-16 1 -31 7 -14 5 -37 12 -51 15 -13 2 -29 8 -35 12 -12 10 -76 17 -125 13z
m288 -458 c6 -1 12 3 13 9 0 7 4 2 9 -10 5 -13 13 -23 18 -23 5 0 8 -12 6 -27
-2 -16 -1 -20 2 -10 8 24 28 22 21 -3 -3 -11 0 -20 6 -20 7 0 5 -5 -3 -10 -13
-8 -13 -10 2 -10 9 0 20 -5 24 -12 5 -8 1 -9 -12 -5 -18 7 -18 7 0 -7 10 -8
15 -19 12 -25 -4 -5 -2 -12 3 -16 6 -3 7 -13 4 -21 -3 -9 0 -20 8 -25 23 -15
-22 -5 -51 11 -14 8 -28 14 -32 15 -3 0 -10 3 -14 7 -4 4 -13 3 -21 -4 -7 -6
-27 -12 -43 -13 -69 -4 -72 -5 -66 -21 3 -8 2 -12 -4 -9 -6 3 -10 -3 -10 -13
0 -18 6 -19 63 -16 34 3 68 7 75 9 19 7 63 -5 56 -16 -3 -5 2 -9 10 -9 9 0 16
-5 16 -11 0 -5 4 -8 9 -5 5 3 12 -1 15 -10 3 -9 12 -14 19 -11 6 2 21 0 32 -5
19 -9 19 -9 1 6 -10 9 -22 13 -26 11 -4 -2 -7 2 -7 10 0 8 3 13 5 10 3 -3 11
0 19 7 11 9 12 7 7 -7 -5 -13 -4 -16 4 -11 7 4 12 1 13 -6 0 -7 2 -21 4 -30 3
-15 -1 -15 -34 -4 -49 17 -234 20 -309 6 -51 -10 -72 -10 -137 5 -49 11 -119
17 -191 17 -104 -1 -113 1 -105 16 5 9 20 27 34 39 21 18 34 21 79 17 29 -3
57 -9 62 -15 13 -12 57 -12 75 0 12 8 12 12 2 25 -7 8 -20 15 -29 14 -9 0 -43
10 -75 23 -58 22 -59 22 -93 4 -19 -10 -41 -18 -50 -18 -8 0 -13 -6 -10 -13 3
-7 -2 -15 -9 -18 -11 -4 -14 5 -13 39 1 24 5 39 9 33 5 -7 12 -7 25 2 15 9 16
10 2 6 -12 -4 -15 -1 -11 11 5 12 1 14 -18 8 -16 -4 -20 -3 -11 3 8 5 13 13
12 18 -1 4 7 11 17 15 10 4 12 8 5 8 -9 1 -10 6 -3 20 6 10 8 21 5 23 -3 3 3
8 12 12 12 5 15 2 10 -11 -5 -15 -4 -15 9 1 8 11 23 21 32 23 10 1 38 6 63 11
26 4 80 3 128 -3 45 -6 91 -10 102 -8 10 1 22 -1 25 -6 3 -6 18 -6 35 -1 20 6
30 5 30 -2 0 -6 7 -5 16 3 21 18 86 37 99 30 6 -3 16 -6 23 -7z m-630 -194
c-1 -16 -5 -30 -8 -30 -3 0 -4 -18 -2 -39 3 -29 8 -38 18 -34 8 3 14 0 14 -6
0 -6 -18 -11 -42 -11 -32 1 -39 3 -27 10 11 7 15 20 13 41 -2 18 1 38 7 45 7
8 7 14 -1 19 -16 10 -12 25 5 19 8 -4 15 -1 15 5 0 6 2 11 5 11 3 0 4 -13 3
-30z m-31 -16 c-3 -3 -12 -4 -19 -1 -8 3 -5 6 6 6 11 1 17 -2 13 -5z m820 -36
c-3 -8 -6 -5 -6 6 -1 11 2 17 5 13 3 -3 4 -12 1 -19z m73 -97 c0 -5 -7 -14
-15 -21 -12 -10 -15 -10 -15 2 0 8 3 18 7 21 9 10 23 9 23 -2z m-453 -17 c-3
-3 -12 -4 -19 -1 -8 3 -5 6 6 6 11 1 17 -2 13 -5z"/>
<path d="M841 2006 c-24 -13 -24 -14 -4 -25 17 -8 26 -7 46 9 26 20 26 20 32
0 8 -25 60 -28 69 -4 3 8 10 12 16 9 6 -4 8 -11 5 -16 -4 -5 -1 -9 4 -9 18 0
12 18 -11 34 -28 20 -123 21 -157 2z"/>
<path d="M1300 1984 c0 -20 5 -24 29 -24 21 0 32 6 36 20 7 24 23 26 31 5 7
-16 64 -21 64 -5 0 18 -40 30 -99 29 -57 -2 -61 -3 -61 -25z"/>
<path d="M1650 1985 c-17 -18 -20 -28 -12 -37 5 -7 12 -26 15 -43 3 -25 4 -23
6 11 0 23 8 47 16 54 16 13 20 40 7 40 -5 0 -19 -11 -32 -25z"/>
<path d="M1277 1993 c-10 -9 -9 -23 1 -23 5 0 9 7 9 15 0 17 -1 18 -10 8z"/>
<path d="M858 1833 c12 -2 32 -2 45 0 12 2 2 4 -23 4 -25 0 -35 -2 -22 -4z"/>
<path d="M590 1805 c14 -17 26 -32 27 -34 1 -2 1 6 0 17 0 12 -3 19 -6 17 -2
-3 -14 3 -25 12 -16 13 -14 10 4 -12z"/>
<path d="M1062 1698 c6 -18 64 -27 121 -21 33 4 51 2 56 -6 6 -9 12 -7 22 5
12 15 12 17 0 9 -9 -5 -19 -2 -27 10 -12 16 -18 17 -57 5 -33 -9 -50 -9 -65
-1 -28 15 -55 14 -50 -1z"/>
<path d="M1027 1679 c7 -7 15 -10 18 -7 3 3 -2 9 -12 12 -14 6 -15 5 -6 -5z"/>
<path d="M1546 1642 c-3 -5 1 -9 9 -9 8 0 12 4 9 9 -3 4 -7 8 -9 8 -2 0 -6 -4
-9 -8z"/>
<path d="M1160 1545 c-7 -8 -17 -12 -24 -8 -18 12 -89 13 -102 2 -7 -6 -18 -9
-26 -8 -23 3 -38 -1 -38 -10 0 -13 69 -19 74 -6 2 5 5 1 5 -10 1 -16 3 -17 11
-5 6 10 31 15 77 18 77 3 105 -7 84 -32 -18 -21 -1 -21 43 2 32 15 43 36 20
37 -5 1 -19 6 -30 13 -12 6 -31 9 -43 7 -11 -2 -21 0 -21 6 0 14 -16 11 -30
-6z"/>
<path d="M1133 1453 c9 -2 25 -2 35 0 9 3 1 5 -18 5 -19 0 -27 -2 -17 -5z"/>
<path d="M1420 1380 c-41 -44 -81 -79 -88 -79 -7 -1 -15 -9 -19 -18 -3 -10
-14 -25 -24 -33 -12 -9 -15 -20 -10 -28 8 -13 51 3 121 43 29 17 76 21 50 5
-12 -8 -12 -10 -1 -10 8 0 11 -7 8 -20 -3 -11 -2 -18 3 -15 4 2 11 19 15 37
l8 33 8 -40 c4 -22 8 -256 9 -520 1 -264 4 -537 7 -607 l6 -128 343 0 344 0 0
508 0 509 -97 41 c-169 71 -224 91 -393 148 -143 49 -169 61 -196 91 -17 20
-33 31 -35 24 -2 -6 -3 13 -2 43 0 29 6 63 12 75 7 11 10 21 9 20 -2 0 -37
-36 -78 -79z"/>
<path d="M1286 1273 c-6 -14 -5 -15 5 -6 7 7 10 15 7 18 -3 3 -9 -2 -12 -12z"/>
<path d="M1250 1214 c0 -8 5 -12 10 -9 6 3 10 10 10 16 0 5 -4 9 -10 9 -5 0
-10 -7 -10 -16z"/>
</g>
</svg>
